<svg width="19" height="20" viewBox="0 0 19 20" fill="none" xmlns="http://www.w3.org/2000/svg">
<path d="M17.5385 19.1174L11.0714 12.5549C10.5582 12.9716 9.96791 13.3014 9.30067 13.5445C8.63344 13.7875 7.92343 13.9091 7.17065 13.9091C5.30581 13.9091 3.72754 13.2537 2.43584 11.9429C1.14414 10.6322 0.498291 9.03059 0.498291 7.13823C0.498291 5.24587 1.14414 3.64431 2.43584 2.33355C3.72754 1.02278 5.30581 0.367401 7.17065 0.367401C9.03549 0.367401 10.6138 1.02278 11.9055 2.33355C13.1972 3.64431 13.843 5.24587 13.843 7.13823C13.843 7.90212 13.7232 8.62261 13.4837 9.29969C13.2442 9.97678 12.9191 10.5757 12.5085 11.0966L18.9756 17.6591L17.5385 19.1174ZM7.17065 11.8257C8.4538 11.8257 9.54447 11.37 10.4427 10.4585C11.3409 9.54709 11.79 8.44032 11.79 7.13823C11.79 5.83615 11.3409 4.72938 10.4427 3.81792C9.54447 2.90646 8.4538 2.45073 7.17065 2.45073C5.8875 2.45073 4.79683 2.90646 3.89863 3.81792C3.00043 4.72938 2.55132 5.83615 2.55132 7.13823C2.55132 8.44032 3.00043 9.54709 3.89863 10.4585C4.79683 11.37 5.8875 11.8257 7.17065 11.8257Z" fill="#8A226F"/>
</svg>
