<svg width="25" height="25" viewBox="0 0 25 25" fill="none" xmlns="http://www.w3.org/2000/svg">
<g clip-path="url(#clip0_26_624)">
<path d="M20.8333 12.5V22.9167H4.16659V12.5M12.4999 22.9167V7.29166M12.4999 7.29166H7.81242C7.12175 7.29166 6.45937 7.01729 5.97099 6.52892C5.48262 6.04054 5.20825 5.37816 5.20825 4.68749C5.20825 3.99683 5.48262 3.33445 5.97099 2.84607C6.45937 2.35769 7.12175 2.08333 7.81242 2.08333C11.4583 2.08333 12.4999 7.29166 12.4999 7.29166ZM12.4999 7.29166H17.1874C17.8781 7.29166 18.5405 7.01729 19.0288 6.52892C19.5172 6.04054 19.7916 5.37816 19.7916 4.68749C19.7916 3.99683 19.5172 3.33445 19.0288 2.84607C18.5405 2.35769 17.8781 2.08333 17.1874 2.08333C13.5416 2.08333 12.4999 7.29166 12.4999 7.29166ZM2.08325 7.29166H22.9166V12.5H2.08325V7.29166Z" stroke="#8A226F" stroke-width="4" stroke-linecap="round" stroke-linejoin="round"/>
</g>
<defs>
<clipPath id="clip0_26_624">
<rect width="25" height="25" fill="white"/>
</clipPath>
</defs>
</svg>
