<svg width="25" height="25" viewBox="0 0 25 25" fill="none" xmlns="http://www.w3.org/2000/svg">
<path d="M12.5 22.9167C12.2569 22.9167 12.0486 22.8473 11.875 22.7084C11.7014 22.5695 11.5712 22.3872 11.4844 22.1615C11.1545 21.1893 10.7378 20.2778 10.2344 19.4271C9.74824 18.5764 9.06248 17.5782 8.17706 16.4323C7.29165 15.2865 6.57116 14.1927 6.0156 13.1511C5.47741 12.1094 5.20831 10.8507 5.20831 9.37504C5.20831 7.34379 5.91144 5.62504 7.31769 4.21879C8.7413 2.79518 10.4687 2.08337 12.5 2.08337C14.5312 2.08337 16.25 2.79518 17.6562 4.21879C19.0798 5.62504 19.7916 7.34379 19.7916 9.37504C19.7916 10.9549 19.4878 12.2743 18.8802 13.3334C18.2899 14.375 17.6041 15.408 16.8229 16.4323C15.8854 17.6823 15.1736 18.724 14.6875 19.5573C14.2187 20.3733 13.8281 21.2414 13.5156 22.1615C13.4288 22.4046 13.2899 22.5955 13.0989 22.7344C12.9253 22.8559 12.7257 22.9167 12.5 22.9167ZM12.5 11.9792C13.2291 11.9792 13.8455 11.7275 14.3489 11.224C14.8524 10.7205 15.1041 10.1042 15.1041 9.37504C15.1041 8.64587 14.8524 8.02955 14.3489 7.52608C13.8455 7.02261 13.2291 6.77087 12.5 6.77087C11.7708 6.77087 11.1545 7.02261 10.651 7.52608C10.1475 8.02955 9.89581 8.64587 9.89581 9.37504C9.89581 10.1042 10.1475 10.7205 10.651 11.224C11.1545 11.7275 11.7708 11.9792 12.5 11.9792Z" fill="#0E21A0"/>
</svg>
