<svg width="30" height="30" viewBox="0 0 30 30" fill="none" xmlns="http://www.w3.org/2000/svg">
<path d="M20.3 9.7C20.9973 10.3965 21.5505 11.2237 21.928 12.1342C22.3054 13.0447 22.4997 14.0206 22.4997 15.0062C22.4997 15.9919 22.3054 16.9678 21.928 17.8783C21.5505 18.7888 20.9973 19.616 20.3 20.3125M9.70002 20.3C9.00269 19.6034 8.4495 18.7763 8.07207 17.8658C7.69464 16.9553 7.50037 15.9794 7.50037 14.9937C7.50037 14.0081 7.69464 13.0322 8.07207 12.1217C8.4495 11.2112 9.00269 10.384 9.70002 9.6875M23.8375 6.1625C26.1809 8.50659 27.4973 11.6854 27.4973 15C27.4973 18.3146 26.1809 21.4934 23.8375 23.8375M6.16252 23.8375C3.81913 21.4934 2.50269 18.3146 2.50269 15C2.50269 11.6854 3.81913 8.50659 6.16252 6.1625M17.5 15C17.5 16.3807 16.3807 17.5 15 17.5C13.6193 17.5 12.5 16.3807 12.5 15C12.5 13.6193 13.6193 12.5 15 12.5C16.3807 12.5 17.5 13.6193 17.5 15Z" stroke="#8A226F" stroke-width="4" stroke-linecap="round" stroke-linejoin="round"/>
</svg>
