<svg width="25" height="25" viewBox="0 0 25 25" fill="none" xmlns="http://www.w3.org/2000/svg">
<g clip-path="url(#clip0_7_98)">
<path d="M18.6875 18.6875C16.9069 20.0448 14.7387 20.7967 12.5 20.8333C5.20833 20.8333 1.04167 12.5 1.04167 12.5C2.33739 10.0853 4.13452 7.97564 6.3125 6.31251M10.3125 4.41667C11.0295 4.24884 11.7636 4.16494 12.5 4.16667C19.7917 4.16667 23.9583 12.5 23.9583 12.5C23.326 13.6829 22.5719 14.7966 21.7083 15.8229M14.7083 14.7083C14.4222 15.0154 14.0772 15.2616 13.6939 15.4324C13.3106 15.6032 12.8968 15.6951 12.4772 15.7025C12.0576 15.7099 11.6408 15.6327 11.2517 15.4755C10.8626 15.3183 10.5091 15.0844 10.2123 14.7877C9.9156 14.4909 9.68166 14.1374 9.52449 13.7483C9.36732 13.3592 9.29013 12.9424 9.29754 12.5228C9.30494 12.1032 9.39678 11.6894 9.56758 11.3061C9.73838 10.9228 9.98464 10.5778 10.2917 10.2917M1.04167 1.04167L23.9583 23.9583" stroke="#757575" stroke-width="4" stroke-linecap="round" stroke-linejoin="round"/>
</g>
<defs>
<clipPath id="clip0_7_98">
<rect width="25" height="25" fill="white"/>
</clipPath>
</defs>
</svg>
