<svg width="19" height="19" viewBox="0 0 19 19" fill="none" xmlns="http://www.w3.org/2000/svg">
<path d="M2.20207 16.6139H3.64937L13.5773 6.93564L12.13 5.52474L2.20207 15.203V16.6139ZM0.170776 18.5941V14.3861L13.5773 1.34158C13.7805 1.16006 14.0047 1.01979 14.2502 0.920783C14.4956 0.821773 14.7538 0.772268 15.0246 0.772268C15.2955 0.772268 15.5578 0.821773 15.8118 0.920783C16.0657 1.01979 16.2857 1.16831 16.4719 1.36633L17.8684 2.75247C18.0716 2.93398 18.2197 3.14851 18.3128 3.39603C18.4059 3.64356 18.4524 3.89108 18.4524 4.13861C18.4524 4.40263 18.4059 4.65428 18.3128 4.89356C18.2197 5.13283 18.0716 5.35148 17.8684 5.5495L4.48728 18.5941H0.170776ZM12.841 6.24257L12.13 5.52474L13.5773 6.93564L12.841 6.24257Z" fill="#8A226F"/>
</svg>
